<?xml version="1.0" encoding="utf-8"?>
<!-- Generator: Adobe Illustrator 14.0.0, SVG Export Plug-In . SVG Version: 6.00 Build 43363)  -->
<!DOCTYPE svg PUBLIC "-//W3C//DTD SVG 1.1//EN" "http://www.w3.org/Graphics/SVG/1.1/DTD/svg11.dtd">
<svg version="1.1" id="Layer_1" xmlns="http://www.w3.org/2000/svg" xmlns:xlink="http://www.w3.org/1999/xlink" x="0px" y="0px"
	 width="183.163px" height="145.344px" viewBox="308.542 227.483 183.163 145.344"
	 enable-background="new 308.542 227.483 183.163 145.344" xml:space="preserve">
<path fill="#FEC661" d="M485.703,294.75c-4.461-0.351-6.378-0.214-10.194-0.254c15.003-46.271-33.929-84.484-76.083-58.679
	c-8.802-5.821-14.292-8.541-32.59-8.216c-14.143,0.513-54.367,18.05-42.886,65.047c-4.034-0.066-6.916-0.09-9.775-0.015
	c-1.651,0.092-5.56,2.674-5.632,7.47c-0.073,4.5,4.127,7.048,5.322,7.083c6.007,0.077,8.944-0.062,17.737,0.107
	c63.292,63.75,63.335,65.316,67.956,65.522c5.907,0.263,7.445-3.35,66.95-63.319c6.396-0.181,13.687-0.012,19.235-0.117
	c1.77-0.076,5.788-1.997,5.962-7.834C491.724,298.408,488.628,295.109,485.703,294.75z M400.005,350.499
	c-14-14.166-28.412-28.99-42.411-43.156c5.022-0.032,11.534,0.438,14.86-0.836c2.238-0.856,7.636-12.337,11.304-20.172
	c8.173,29.007,7.705,43.075,15.999,43.394c6.918-0.381,7.72-5.405,19.66-26.631c2.927,8.038,11.654,6.354,21.307,5.969
	C434.667,315.242,426.189,324.077,400.005,350.499z M455.008,294.496c-7.833,0-16.423,0-24.256,0
	c-3.377-5.198-6.378-12.79-12.569-12.569c-6.949,0.192-7.989,10.085-15.432,20.933c-9.868-35.857-8.671-43.975-16.902-44.229
	c-6.902-0.063-7.986,6.399-21.345,33.865c-6.667,0-14.045,0.05-20.712,0.05c-8.627-13.759-3.136-47.677,28.821-46.553
	c19.069,0.67,19.607,10.835,27.049,10.716c8.091-0.13,10.004-8.623,23.845-10.716C450.239,241.95,469.026,272.834,455.008,294.496z"
	/>
</svg>
