<?xml version="1.0" encoding="iso-8859-1"?>
<!-- Generator: Adobe Illustrator 14.0.0, SVG Export Plug-In . SVG Version: 6.00 Build 43363)  -->
<!DOCTYPE svg PUBLIC "-//W3C//DTD SVG 1.1//EN" "http://www.w3.org/Graphics/SVG/1.1/DTD/svg11.dtd">
<svg version="1.1" id="Layer_1" xmlns="http://www.w3.org/2000/svg" xmlns:xlink="http://www.w3.org/1999/xlink" x="0px" y="0px"
	 width="800px" height="600px" viewBox="0 0 800 600" style="enable-background:new 0 0 800 600;" xml:space="preserve">
<path style="fill-rule:evenodd;clip-rule:evenodd;fill:#FEC661;" d="M485.703,294.75c-4.574-0.181-6.475-0.204-10.194-0.254
	c15.003-46.271-33.929-84.484-76.083-58.679c-8.802-5.821-14.292-8.541-32.59-8.216c-14.143,0.513-54.367,18.05-42.886,65.047
	c-4.034-0.066-6.916-0.09-9.775-0.015c-1.651,0.092-5.56,2.674-5.632,7.47c-0.073,4.501,4.127,7.048,5.322,7.083
	c6.007,0.077,8.944-0.062,17.737,0.107c63.292,63.75,63.335,65.316,67.956,65.522c5.907,0.263,7.445-3.349,66.95-63.319
	c6.408-0.056,13.701-0.063,19.235-0.117c1.771-0.018,5.962-1.706,5.962-7.546C491.706,298,488.521,294.813,485.703,294.75z
	 M400.005,350.499c-14-14.166-28.412-28.99-42.411-43.156c5.022-0.032,11.534,0.438,14.86-0.836
	c2.238-0.857,7.636-12.337,11.304-20.172c8.173,29.007,7.705,43.075,15.999,43.394c6.918-0.381,7.72-5.406,19.66-26.631
	c2.927,8.038,11.654,6.354,21.307,5.968C434.667,315.242,426.189,324.077,400.005,350.499z M455.008,294.496
	c-7.833,0-16.423,0-24.256,0c-3.377-5.198-6.378-12.79-12.569-12.569c-6.95,0.192-7.99,10.085-15.432,20.933
	c-9.868-35.858-8.671-43.975-16.902-44.229c-6.902-0.063-7.986,6.399-21.345,33.865c-6.667,0-14.045,0.05-20.712,0.05
	c-8.627-13.759-3.136-47.677,28.821-46.553c19.069,0.67,19.607,10.835,27.049,10.716c8.091-0.13,10.004-8.623,23.845-10.716
	C450.239,241.95,469.026,272.834,455.008,294.496z"/>
</svg>
